<mxfile host="app.diagrams.net" modified="2023-11-17T15:20:45.082Z" agent="Mozilla/5.0 (X11; Ubuntu; Linux x86_64; rv:109.0) Gecko/20100101 Firefox/119.0" etag="8H-DfCaK3XhZSLZUSsfl" version="22.1.3" type="github">
  <diagram name="Página-1" id="LKPU2n1vutFRiZiMec9o">
    <mxGraphModel dx="1623" dy="709" grid="1" gridSize="10" guides="1" tooltips="1" connect="1" arrows="1" fold="1" page="1" pageScale="1" pageWidth="827" pageHeight="1169" math="0" shadow="0">
      <root>
        <mxCell id="0" />
        <mxCell id="1" parent="0" />
        <mxCell id="KjkeE2FAeW9fJpxN6qfr-4" style="edgeStyle=orthogonalEdgeStyle;rounded=0;orthogonalLoop=1;jettySize=auto;html=1;exitX=0.5;exitY=1;exitDx=0;exitDy=0;entryX=0.5;entryY=0;entryDx=0;entryDy=0;" parent="1" source="KjkeE2FAeW9fJpxN6qfr-1" target="KjkeE2FAeW9fJpxN6qfr-3" edge="1">
          <mxGeometry relative="1" as="geometry" />
        </mxCell>
        <mxCell id="KjkeE2FAeW9fJpxN6qfr-1" value="Inicio" style="ellipse;whiteSpace=wrap;html=1;" parent="1" vertex="1">
          <mxGeometry x="-790" y="80" width="100" height="60" as="geometry" />
        </mxCell>
        <mxCell id="KjkeE2FAeW9fJpxN6qfr-2" value="&lt;ol id=&quot;docs-internal-guid-64b0cba7-7fff-91f4-a169-921dda4c9d94&quot; style=&quot;margin-top:0;margin-bottom:0;padding-inline-start:48px;&quot;&gt;&lt;li aria-level=&quot;1&quot; style=&quot;list-style-type: decimal; font-size: 12pt; font-family: Times, serif; color: rgb(0, 0, 0); background-color: transparent; font-weight: 700; font-style: normal; font-variant: normal; text-decoration: none; vertical-align: baseline; margin-left: -18pt;&quot; dir=&quot;ltr&quot;&gt;&lt;p role=&quot;presentation&quot; style=&quot;line-height:1.38;text-align: justify;margin-top:0pt;margin-bottom:10pt;&quot; dir=&quot;ltr&quot;&gt;Elaborar um fluxograma que lê um vetor de inteiros com 10 elementos exibe o menor valor encontrado no vetor.&lt;/p&gt;&lt;/li&gt;&lt;/ol&gt;" style="text;html=1;align=center;verticalAlign=middle;resizable=0;points=[];autosize=1;strokeColor=none;fillColor=none;" parent="1" vertex="1">
          <mxGeometry x="-810" y="30" width="810" height="50" as="geometry" />
        </mxCell>
        <mxCell id="KjkeE2FAeW9fJpxN6qfr-17" style="edgeStyle=orthogonalEdgeStyle;rounded=0;orthogonalLoop=1;jettySize=auto;html=1;exitX=0.5;exitY=1;exitDx=0;exitDy=0;entryX=0.5;entryY=0;entryDx=0;entryDy=0;" parent="1" source="KjkeE2FAeW9fJpxN6qfr-3" target="KjkeE2FAeW9fJpxN6qfr-11" edge="1">
          <mxGeometry relative="1" as="geometry" />
        </mxCell>
        <mxCell id="KjkeE2FAeW9fJpxN6qfr-3" value="vl = [1,0,3,4,50,6,74,8,90,10]" style="rounded=0;whiteSpace=wrap;html=1;" parent="1" vertex="1">
          <mxGeometry x="-820" y="170" width="160" height="40" as="geometry" />
        </mxCell>
        <mxCell id="KjkeE2FAeW9fJpxN6qfr-5" value="Fim" style="ellipse;whiteSpace=wrap;html=1;" parent="1" vertex="1">
          <mxGeometry x="-790" y="460" width="100" height="60" as="geometry" />
        </mxCell>
        <mxCell id="jQT1pWQy4uQyujAd2tIn-29" value="" style="edgeStyle=orthogonalEdgeStyle;rounded=0;orthogonalLoop=1;jettySize=auto;html=1;" edge="1" parent="1" source="KjkeE2FAeW9fJpxN6qfr-11" target="KjkeE2FAeW9fJpxN6qfr-13">
          <mxGeometry relative="1" as="geometry" />
        </mxCell>
        <mxCell id="KjkeE2FAeW9fJpxN6qfr-11" value="check =validador(vl,10)" style="shape=process;whiteSpace=wrap;html=1;backgroundOutline=1;" parent="1" vertex="1">
          <mxGeometry x="-816.5" y="240" width="160" height="60" as="geometry" />
        </mxCell>
        <mxCell id="jQT1pWQy4uQyujAd2tIn-13" style="edgeStyle=orthogonalEdgeStyle;rounded=0;orthogonalLoop=1;jettySize=auto;html=1;exitX=0.5;exitY=1;exitDx=0;exitDy=0;entryX=0.5;entryY=0;entryDx=0;entryDy=0;" edge="1" parent="1" source="KjkeE2FAeW9fJpxN6qfr-12" target="KjkeE2FAeW9fJpxN6qfr-18">
          <mxGeometry relative="1" as="geometry" />
        </mxCell>
        <mxCell id="KjkeE2FAeW9fJpxN6qfr-12" value="validador(v, t)" style="ellipse;whiteSpace=wrap;html=1;" parent="1" vertex="1">
          <mxGeometry x="-290" y="60" width="100" height="40" as="geometry" />
        </mxCell>
        <mxCell id="KjkeE2FAeW9fJpxN6qfr-14" style="edgeStyle=orthogonalEdgeStyle;rounded=0;orthogonalLoop=1;jettySize=auto;html=1;" parent="1" source="KjkeE2FAeW9fJpxN6qfr-13" target="KjkeE2FAeW9fJpxN6qfr-5" edge="1">
          <mxGeometry relative="1" as="geometry" />
        </mxCell>
        <mxCell id="KjkeE2FAeW9fJpxN6qfr-13" value="f&#39;O menor valor é {verificador}&#39; " style="shape=display;whiteSpace=wrap;html=1;" parent="1" vertex="1">
          <mxGeometry x="-823.5" y="345" width="167" height="60" as="geometry" />
        </mxCell>
        <mxCell id="jQT1pWQy4uQyujAd2tIn-14" style="edgeStyle=orthogonalEdgeStyle;rounded=0;orthogonalLoop=1;jettySize=auto;html=1;exitX=0.5;exitY=1;exitDx=0;exitDy=0;entryX=0.5;entryY=0;entryDx=0;entryDy=0;" edge="1" parent="1" source="KjkeE2FAeW9fJpxN6qfr-18" target="jQT1pWQy4uQyujAd2tIn-12">
          <mxGeometry relative="1" as="geometry" />
        </mxCell>
        <mxCell id="KjkeE2FAeW9fJpxN6qfr-18" value="cont = 0" style="rounded=1;whiteSpace=wrap;html=1;" parent="1" vertex="1">
          <mxGeometry x="-300" y="120" width="120" height="30" as="geometry" />
        </mxCell>
        <mxCell id="jQT1pWQy4uQyujAd2tIn-11" style="edgeStyle=orthogonalEdgeStyle;rounded=0;orthogonalLoop=1;jettySize=auto;html=1;entryX=0.5;entryY=0;entryDx=0;entryDy=0;" edge="1" parent="1" source="jQT1pWQy4uQyujAd2tIn-2" target="jQT1pWQy4uQyujAd2tIn-5">
          <mxGeometry relative="1" as="geometry" />
        </mxCell>
        <mxCell id="jQT1pWQy4uQyujAd2tIn-17" style="edgeStyle=orthogonalEdgeStyle;rounded=0;orthogonalLoop=1;jettySize=auto;html=1;exitX=1;exitY=0.5;exitDx=0;exitDy=0;entryX=1;entryY=0.5;entryDx=0;entryDy=0;entryPerimeter=0;" edge="1" parent="1" source="jQT1pWQy4uQyujAd2tIn-2" target="jQT1pWQy4uQyujAd2tIn-16">
          <mxGeometry relative="1" as="geometry">
            <Array as="points">
              <mxPoint x="-80" y="270" />
              <mxPoint x="-80" y="585" />
            </Array>
          </mxGeometry>
        </mxCell>
        <mxCell id="jQT1pWQy4uQyujAd2tIn-22" style="edgeStyle=orthogonalEdgeStyle;rounded=0;orthogonalLoop=1;jettySize=auto;html=1;exitX=0;exitY=0.5;exitDx=0;exitDy=0;entryX=0;entryY=0.5;entryDx=0;entryDy=0;" edge="1" parent="1" source="jQT1pWQy4uQyujAd2tIn-2" target="jQT1pWQy4uQyujAd2tIn-3">
          <mxGeometry relative="1" as="geometry">
            <Array as="points">
              <mxPoint x="-400" y="270" />
              <mxPoint x="-400" y="650" />
            </Array>
          </mxGeometry>
        </mxCell>
        <mxCell id="jQT1pWQy4uQyujAd2tIn-2" value="cont&amp;lt;t" style="rhombus;whiteSpace=wrap;html=1;" vertex="1" parent="1">
          <mxGeometry x="-280" y="230" width="80" height="80" as="geometry" />
        </mxCell>
        <mxCell id="jQT1pWQy4uQyujAd2tIn-3" value="return" style="ellipse;whiteSpace=wrap;html=1;" vertex="1" parent="1">
          <mxGeometry x="-295" y="630" width="110" height="40" as="geometry" />
        </mxCell>
        <mxCell id="jQT1pWQy4uQyujAd2tIn-21" style="edgeStyle=orthogonalEdgeStyle;rounded=0;orthogonalLoop=1;jettySize=auto;html=1;entryX=0;entryY=0.5;entryDx=0;entryDy=0;exitX=0;exitY=0.5;exitDx=0;exitDy=0;" edge="1" parent="1" source="jQT1pWQy4uQyujAd2tIn-5" target="jQT1pWQy4uQyujAd2tIn-8">
          <mxGeometry relative="1" as="geometry">
            <Array as="points">
              <mxPoint x="-330" y="390" />
              <mxPoint x="-330" y="510" />
            </Array>
          </mxGeometry>
        </mxCell>
        <mxCell id="jQT1pWQy4uQyujAd2tIn-24" value="" style="edgeStyle=orthogonalEdgeStyle;rounded=0;orthogonalLoop=1;jettySize=auto;html=1;exitX=1;exitY=0.5;exitDx=0;exitDy=0;" edge="1" parent="1" source="jQT1pWQy4uQyujAd2tIn-5" target="jQT1pWQy4uQyujAd2tIn-23">
          <mxGeometry relative="1" as="geometry" />
        </mxCell>
        <mxCell id="jQT1pWQy4uQyujAd2tIn-5" value="v[i] &amp;gt; m_valor " style="rhombus;whiteSpace=wrap;html=1;" vertex="1" parent="1">
          <mxGeometry x="-290" y="350" width="100" height="80" as="geometry" />
        </mxCell>
        <mxCell id="jQT1pWQy4uQyujAd2tIn-7" value="Verdadeiro" style="text;html=1;strokeColor=none;fillColor=none;align=center;verticalAlign=middle;whiteSpace=wrap;rounded=0;" vertex="1" parent="1">
          <mxGeometry x="-240" y="320" width="60" height="20" as="geometry" />
        </mxCell>
        <mxCell id="jQT1pWQy4uQyujAd2tIn-28" style="edgeStyle=orthogonalEdgeStyle;rounded=0;orthogonalLoop=1;jettySize=auto;html=1;exitX=0.5;exitY=1;exitDx=0;exitDy=0;entryX=0.5;entryY=0;entryDx=0;entryDy=0;" edge="1" parent="1" source="jQT1pWQy4uQyujAd2tIn-8" target="jQT1pWQy4uQyujAd2tIn-16">
          <mxGeometry relative="1" as="geometry" />
        </mxCell>
        <mxCell id="jQT1pWQy4uQyujAd2tIn-8" value="" style="ellipse;whiteSpace=wrap;html=1;aspect=fixed;" vertex="1" parent="1">
          <mxGeometry x="-260" y="490" width="40" height="40" as="geometry" />
        </mxCell>
        <mxCell id="jQT1pWQy4uQyujAd2tIn-10" value="Falso" style="text;html=1;strokeColor=none;fillColor=none;align=center;verticalAlign=middle;whiteSpace=wrap;rounded=0;" vertex="1" parent="1">
          <mxGeometry x="-400" y="240" width="60" height="30" as="geometry" />
        </mxCell>
        <mxCell id="jQT1pWQy4uQyujAd2tIn-15" style="edgeStyle=orthogonalEdgeStyle;rounded=0;orthogonalLoop=1;jettySize=auto;html=1;exitX=0.5;exitY=1;exitDx=0;exitDy=0;entryX=0.5;entryY=0;entryDx=0;entryDy=0;" edge="1" parent="1" source="jQT1pWQy4uQyujAd2tIn-12" target="jQT1pWQy4uQyujAd2tIn-2">
          <mxGeometry relative="1" as="geometry" />
        </mxCell>
        <mxCell id="jQT1pWQy4uQyujAd2tIn-12" value="m_valor = 0" style="rounded=1;whiteSpace=wrap;html=1;" vertex="1" parent="1">
          <mxGeometry x="-300" y="170" width="120" height="30" as="geometry" />
        </mxCell>
        <mxCell id="jQT1pWQy4uQyujAd2tIn-20" style="edgeStyle=orthogonalEdgeStyle;rounded=0;orthogonalLoop=1;jettySize=auto;html=1;exitX=0.5;exitY=1;exitDx=0;exitDy=0;entryX=0.5;entryY=0;entryDx=0;entryDy=0;" edge="1" parent="1" source="jQT1pWQy4uQyujAd2tIn-16" target="jQT1pWQy4uQyujAd2tIn-3">
          <mxGeometry relative="1" as="geometry" />
        </mxCell>
        <mxCell id="jQT1pWQy4uQyujAd2tIn-16" value="cont = cont + 1" style="rounded=1;whiteSpace=wrap;html=1;" vertex="1" parent="1">
          <mxGeometry x="-300" y="570" width="120" height="30" as="geometry" />
        </mxCell>
        <mxCell id="jQT1pWQy4uQyujAd2tIn-18" value="Verdadeiro" style="text;html=1;strokeColor=none;fillColor=none;align=center;verticalAlign=middle;whiteSpace=wrap;rounded=0;" vertex="1" parent="1">
          <mxGeometry x="-140" y="240" width="60" height="30" as="geometry" />
        </mxCell>
        <mxCell id="jQT1pWQy4uQyujAd2tIn-23" value="m_valor = v[i]" style="whiteSpace=wrap;html=1;" vertex="1" parent="1">
          <mxGeometry x="-190" y="440" width="90" height="30" as="geometry" />
        </mxCell>
        <mxCell id="jQT1pWQy4uQyujAd2tIn-25" style="edgeStyle=orthogonalEdgeStyle;rounded=0;orthogonalLoop=1;jettySize=auto;html=1;exitX=0.5;exitY=1;exitDx=0;exitDy=0;entryX=1;entryY=0.5;entryDx=0;entryDy=0;" edge="1" parent="1" source="jQT1pWQy4uQyujAd2tIn-23" target="jQT1pWQy4uQyujAd2tIn-8">
          <mxGeometry relative="1" as="geometry" />
        </mxCell>
        <mxCell id="jQT1pWQy4uQyujAd2tIn-26" value="Verdadeiro" style="text;html=1;strokeColor=none;fillColor=none;align=center;verticalAlign=middle;whiteSpace=wrap;rounded=0;" vertex="1" parent="1">
          <mxGeometry x="-185" y="370" width="60" height="20" as="geometry" />
        </mxCell>
        <mxCell id="jQT1pWQy4uQyujAd2tIn-27" value="Falso" style="text;html=1;strokeColor=none;fillColor=none;align=center;verticalAlign=middle;whiteSpace=wrap;rounded=0;" vertex="1" parent="1">
          <mxGeometry x="-330" y="360" width="35" height="30" as="geometry" />
        </mxCell>
      </root>
    </mxGraphModel>
  </diagram>
</mxfile>
